<svg id="Layer_1"  xmlns="http://www.w3.org/2000/svg" viewBox="0 0 595.28 841.89"><path d="M202.9,218.68V420.94m70.73-202.08V421.12m67.08-143.9H138.45M340.53,348H138.27M220,296.73l34.14,34.15m-35.36-1.22,34.14-34.15m-86-67.07a17.68,17.68,0,1,0,17.68,17.68A17.69,17.69,0,0,0,166.93,228.44Zm123.78,139,34.14,34.15m-35.36-1.22,34.14-34.15m-18.9-137.8a17.68,17.68,0,1,0,17.68,17.68A17.69,17.69,0,0,0,304.73,228.44Z" fill="none" stroke="#ebebec" stroke-linecap="round" stroke-miterlimit="10" stroke-width="6"/></svg>